@startuml DiagramaEstados
title Cafetería - Diagrama de Estados

[*] --> Abierta
[*] --> Cerrada

state GestionInventario {
    Abierta --> RevisandoStock : IniciarJornada
    RevisandoStock --> FaltaStock : StockBajo
    RevisandoStock --> SuficienteStock : StockOk
}

state GestionProveedor {
    FaltaStock --> PedidoRealizado : RealizarPedido
    PedidoRealizado --> SuficienteStock : PedidoRecibido
}

state GestionMenu {
    [*] --> ClientePidiendo : ClienteLlega
}

state GestionReceta {
    ClientePidiendo --> PreparandoReceta : HacerPedido
    PreparandoReceta --> EntregandoReceta : RecetaLista
    EntregandoReceta --> [*] : RecetaEntregada
}

state GestionPresupuesto {

}

Cerrada --> [*] : FinJornada
